<svg xmlns="http://www.w3.org/2000/svg" width="21.667" height="21.667" fill="none" viewBox="0 0 21.666 21.667"><path fill="#fff" d="M17.333 17.333a2.167 2.167 0 1 1-2.166 2.167 2.16 2.16 0 0 1 2.166-2.167M0 0h3.543L4.56 2.167h16.022a1.084 1.084 0 0 1 1.084 1.083c0 .184-.055.368-.13.542L17.658 10.8a2.18 2.18 0 0 1-1.896 1.116h-8.07l-.975 1.765-.033.13a.27.27 0 0 0 .271.271H19.5v2.167h-13a2.167 2.167 0 0 1-2.167-2.167c0-.379.098-.736.26-1.04l1.474-2.654-3.9-8.222H0zm6.5 17.333A2.167 2.167 0 1 1 4.333 19.5 2.16 2.16 0 0 1 6.5 17.333m9.75-7.583 3.012-5.417H5.568L8.125 9.75z"/></svg>