<svg xmlns="http://www.w3.org/2000/svg" width="20.452" height="22.006" fill="none" viewBox="0 0 20.452 22.006"><path fill="#fff" d="M8.521 19.506a1 1 0 0 0-1.18-.983c-1.31.24-2.963.276-3.402-.958a5.7 5.7 0 0 0-1.837-2.415 1 1 0 0 1-.167-.11 1 1 0 0 0-.93-.645H1a1 1 0 0 0-1 .995c-.004.815.81 1.338 1.141 1.514.39.392.703.853.924 1.36.365 1.023 1.423 2.576 4.466 2.376l.003.098.004.268a1 1 0 1 0 2 0l-.005-.318c-.005-.19-.012-.464-.012-1.182M19.188 4.38q.054-.209.09-.42A6.3 6.3 0 0 0 18.87.667a1 1 0 0 0-.615-.58c-.356-.12-1.67-.357-4.184 1.25a13.9 13.9 0 0 0-6.354 0C5.213-.247 3.906-.031 3.553.082a1 1 0 0 0-.631.584 6.3 6.3 0 0 0-.404 3.357q.037.191.079.354a6.27 6.27 0 0 0-1.256 3.83q-.003.462.043.92c.334 4.604 3.334 5.985 5.424 6.46a5 5 0 0 0-.118.4 1 1 0 0 0 1.942.479c.064-.333.227-.64.468-.878a1 1 0 0 0-.546-1.745c-3.454-.395-4.954-1.802-5.18-4.9a7 7 0 0 1-.033-.737 4.26 4.26 0 0 1 1.115-2.944 1 1 0 0 0 .188-1.025 3.4 3.4 0 0 1-.155-.555 4.1 4.1 0 0 1 .079-1.616c.87.246 1.687.645 2.415 1.18a1.01 1.01 0 0 0 .827.133 11.8 11.8 0 0 1 6.173 0 1 1 0 0 0 .83-.137 7.6 7.6 0 0 1 2.406-1.19 4 4 0 0 1 .087 1.578q-.055.311-.169.607a1 1 0 0 0 .188 1.025c.078.087.155.18.224.268.606.758.926 1.706.902 2.676q.003.39-.038.777c-.22 3.056-1.725 4.464-5.195 4.86a1 1 0 0 0-.546 1.746c.248.245.412.563.466.908q.103.404.093.82v2.333c-.01.648-.01 1.133-.01 1.356a1 1 0 1 0 2 0c0-.217 0-.692.01-1.34v-2.35a4.9 4.9 0 0 0-.155-1.311 4 4 0 0 0-.116-.416 6.51 6.51 0 0 0 5.445-6.424q.05-.479.046-.96a6.13 6.13 0 0 0-1.263-3.825"/></svg>