<svg xmlns="http://www.w3.org/2000/svg" width="18.75" height="18.75" fill="none" viewBox="0 0 18.75 18.75"><path fill="#d9d9d9" fill-opacity=".5" d="m17.292 18.75-6.563-6.562q-.78.624-1.797.99a6.4 6.4 0 0 1-2.161.364q-2.84 0-4.804-1.967Q.002 9.609 0 6.771q0-2.838 1.967-4.804T6.77 0q2.836 0 4.805 1.967 1.97 1.966 1.966 4.804a6.35 6.35 0 0 1-1.354 3.958l6.562 6.563zM6.77 11.458q1.953 0 3.32-1.366 1.369-1.367 1.367-3.321 0-1.955-1.366-3.32T6.77 2.083q-1.956-.002-3.32 1.368-1.365 1.37-1.368 3.32t1.368 3.32 3.32 1.367"/></svg>