<svg xmlns="http://www.w3.org/2000/svg" width="21.999" height="20.094" fill="none" viewBox="0 0 21.999 20.094"><path fill="#fff" d="M21.264.474A2.05 2.05 0 0 0 19.186.15L1.266 7.385a2.043 2.043 0 0 0 .103 3.818l3.625 1.26 2.02 6.683a1 1 0 0 0 .12.252c.007.012.018.02.026.033a1 1 0 0 0 .281.265 1 1 0 0 0 .31.136h.013l.006.004q.1.02.203.02l.018-.003a1 1 0 0 0 .301-.052q.033-.013.064-.03a1 1 0 0 0 .205-.114l.152-.13 2.702-2.982 4.03 3.122c.355.276.792.426 1.241.427a2.054 2.054 0 0 0 2.008-1.633l3.263-16.017a2.03 2.03 0 0 0-.693-1.97M8.37 12.782a1 1 0 0 0-.272.506l-.31 1.504-.784-2.593 4.065-2.117zm8.302 5.304-4.763-3.69a1 1 0 0 0-1.353.12l-.866.955.306-1.487L17.078 6.9a1 1 0 0 0-1.169-1.593L5.744 10.6 2.02 9.237 20 2.046z"/></svg>